{"title":"Picnic.At.Hanging.Rock.1975.OrigCut.BR+DVD.720p.x264.AC3.[FrOnkY","uid":10480207,"size":5264950016,"categoryP":"video","categoryS":"hd___movies","magnet":"?xt=urn:btih:980f141d906318b10eab1e02de2d01878f186825&amp;dn=Picnic.At.Hanging.Rock.1975.OrigCut.BR%2BDVD.720p.x264.AC3.%5BFrOnkY&amp;tr=udp%3A%2F%2Ftracker.openbittorrent.com%3A80&amp;tr=udp%3A%2F%2Fopen.demonii.com%3A1337&amp;tr=udp%3A%2F%2Ftracker.coppersurfer.tk%3A6969&amp;tr=udp%3A%2F%2Fexodus.desync.com%3A6969","seeders":1,"leechers":0,"uploader":"HDmEntEs","files":-1,"time":1404395963,"description":"&quot;All that we see or seem\nIs but a dream within a dream&quot; (E.A.Poe)\n\n\nPicnic.At.Hanging.Rock.1975.(OriginalCut).BR+DVD.720p.x264.AC3.[FrOnkY].mkv\n\nFormat                                   : Matroska\nFormat version                           : Version 4 / Version 2\nFile size                                : 4.90 GiB\nDuration                                 : 1h 55mn\nOverall bit rate                         : 6 073 Kbps\nWriting application                      : mkvmerge v6.6.0 ('The Edge Of The In Between') built on Dec  1 2013 17:55:00\nWriting library                          : libebml v1.3.0 + libmatroska v1.4.1\nAttachment                               : Yes / Yes / Yes / Yes / Yes / Yes / Yes / Yes / Yes\n\nVideo\nID                                       : 1\nFormat                                   : AVC\nFormat/Info                              : Advanced Video Codec\nFormat profile                           : &lt;a class=&quot;__cf_email__&quot; href=&quot;/cdn-cgi/l/email-protection&quot; data-cfemail=&quot;2a62434d426a661e041b&quot;&gt;[email&amp;#160;protected]&lt;/a&gt;&lt;script cf-hash='f9e31' type=&quot;text/javascript&quot;&gt;\n/* &lt;![CDATA[ */!function(){try{var t=&quot;currentScript&quot;in document?document.currentScript:function(){for(var t=document.getElementsByTagName(&quot;script&quot;),e=t.length;e--;)if(t[e].getAttribute(&quot;cf-hash&quot;))return t[e]}();if(t&amp;&amp;t.previousSibling){var e,r,n,i,c=t.previousSibling,a=c.getAttribute(&quot;data-cfemail&quot;);if(a){for(e=&quot;&quot;,r=parseInt(a.substr(0,2),16),n=2;a.length-n;n+=2)i=parseInt(a.substr(n,2),16)^r,e+=String.fromCharCode(i);e=document.createTextNode(e),c.parentNode.replaceChild(e,c)}}}catch(u){}}();/* ]]&gt; */&lt;/script&gt;\nFormat settings, CABAC                   : Yes\nFormat settings, ReFrames                : 9 frames\nCodec ID                                 : V_MPEG4/ISO/AVC\nDuration                                 : 1h 55mn\nBit rate                                 : 5 555 Kbps\nWidth                                    : 1 280 pixels\nHeight                                   : 720 pixels\nDisplay aspect ratio                     : 16:9\nFrame rate mode                          : Constant\nFrame rate                               : 24.000 fps\nColor space                              : YUV\nChroma subsampling                       : 4:2:0\nBit depth                                : 8 bits\nScan type                                : Progressive\nBits/(Pixel*Frame)                       : 0.251\nStream size                              : 4.39 GiB (90%)\nWriting library                          : x264 core 133 r2334 a3ac64b\nLanguage                                 : English\nDefault                                  : Yes\nForced                                   : No\n\nAudio #1\nID                                       : 2\nFormat                                   : AC-3\nFormat/Info                              : Audio Coding 3\nMode extension                           : CM (complete main)\nFormat settings, Endianness              : Big\nCodec ID                                 : A_AC3\nDuration                                 : 1h 55mn\nBit rate mode                            : Constant\nBit rate                                 : 192 Kbps\nChannel(s)                               : 2 channels\nChannel positions                        : Front: L R\nSampling rate                            : 48.0 KHz\nBit depth                                : 16 bits\nStream size                              : 159 MiB (3%)\nLanguage                                 : Spanish\nDefault                                  : Yes\nForced                                   : No\n\nAudio #2\nID                                       : 3\nFormat                                   : AC-3\nFormat/Info                              : Audio Coding 3\nMode extension                           : CM (complete main)\nFormat settings, Endianness              : Big\nCodec ID                                 : A_AC3\nDuration                                 : 1h 55mn\nBit rate mode                            : Constant\nBit rate                                 : 320 Kbps\nChannel(s)                               : 2 channels\nChannel positions                        : Front: L R\nSampling rate                            : 48.0 KHz\nBit depth                                : 16 bits\nStream size                              : 265 MiB (5%)\nLanguage                                 : English\nDefault                                  : No\nForced                                   : No\n\nText #1\nID                                       : 4\nFormat                                   : UTF-8\nCodec ID                                 : S_TEXT/UTF8\nCodec ID/Info                            : UTF-8 Plain Text\nTitle                                    : for\nLanguage                                 : Spanish\nDefault                                  : Yes\nForced                                   : No\n\nText #2\nID                                       : 5\nFormat                                   : UTF-8\nCodec ID                                 : S_TEXT/UTF8\nCodec ID/Info                            : UTF-8 Plain Text\nLanguage                                 : Spanish\nDefault                                  : No\nForced                                   : No\n\nText #3\nID                                       : 6\nFormat                                   : UTF-8\nCodec ID                                 : S_TEXT/UTF8\nCodec ID/Info                            : UTF-8 Plain Text\nLanguage                                 : English\nDefault                                  : No\nForced                                   : No\n\nText #4\nID                                       : 7\nFormat                                   : UTF-8\nCodec ID                                 : S_TEXT/UTF8\nCodec ID/Info                            : UTF-8 Plain Text\nLanguage                                 : French\nDefault                                  : No\nForced                                   : No\n\nMenu\n00:00:00.000                             : en:Chapter 01\n00:07:40.125                             : en:Chapter 02\n00:11:30.291                             : en:Chapter 03\n00:18:50.791                             : en:Chapter 04\n00:32:53.875                             : en:Chapter 05\n00:37:45.541                             : en:Chapter 06\n00:44:46.000                             : en:Chapter 07\n00:51:04.416                             : en:Chapter 08\n00:54:00.125                             : en:Chapter 09\n01:04:31.250                             : en:Chapter 10\n01:08:41.500                             : en:Chapter 11\n01:16:42.541                             : en:Chapter 12\n01:23:11.750                             : en:Chapter 13\n01:27:00.250                             : en:Chapter 14\n01:34:07.291                             : en:Chapter 15\n01:40:45.225                             : en:Chapter 16\n01:44:28.333                             : en:Chapter 17\n01:52:18.100                             : en:Chapter 18\n\n\nSCREENS\n &lt;a href=&quot;\nhttps://box.jisko.net/i/44c6a778.png&quot; rel=&quot;nofollow&quot; target=&quot;_NEW&quot;&gt;\nhttps://box.jisko.net/i/44c6a778.png&lt;/a&gt;\n &lt;a href=&quot;\nhttps://box.jisko.net/i/4be2503b.png&quot; rel=&quot;nofollow&quot; target=&quot;_NEW&quot;&gt;\nhttps://box.jisko.net/i/4be2503b.png&lt;/a&gt;\n &lt;a href=&quot;\nhttps://box.jisko.net/i/4f1e484a.png&quot; rel=&quot;nofollow&quot; target=&quot;_NEW&quot;&gt;\nhttps://box.jisko.net/i/4f1e484a.png&lt;/a&gt;","torrent":{"xt":"urn:btih:980f141d906318b10eab1e02de2d01878f186825","amp;dn":"Picnic.At.Hanging.Rock.1975.OrigCut.BR%2BDVD.720p.x264.AC3.%5BFrOnkY","amp;tr":["udp%3A%2F%2Ftracker.openbittorrent.com%3A80","udp%3A%2F%2Fopen.demonii.com%3A1337","udp%3A%2F%2Ftracker.coppersurfer.tk%3A6969","udp%3A%2F%2Fexodus.desync.com%3A6969"],"infoHash":"980f141d906318b10eab1e02de2d01878f186825","infoHashBuffer":{"type":"Buffer","data":[152,15,20,29,144,99,24,177,14,171,30,2,222,45,1,135,143,24,104,37]},"announce":[],"urlList":[]}}